<?xml version="1.0" encoding="UTF-8" standalone="no"?>
<!-- Created with Inkscape (http://www.inkscape.org/) -->

<svg
   width="48"
   height="48"
   viewBox="0 0 12.7 12.7"
   version="1.1"
   id="svg1"
   inkscape:version="1.4.2 (f4327f4, 2025-05-13)"
   sodipodi:docname="black_rose_black_bg.svg"
   inkscape:export-filename="..\black_rose_black_bg.png"
   inkscape:export-xdpi="96"
   inkscape:export-ydpi="96"
   xmlns:inkscape="http://www.inkscape.org/namespaces/inkscape"
   xmlns:sodipodi="http://sodipodi.sourceforge.net/DTD/sodipodi-0.dtd"
   xmlns="http://www.w3.org/2000/svg"
   xmlns:svg="http://www.w3.org/2000/svg">
  <sodipodi:namedview
     id="namedview1"
     pagecolor="#ffffff"
     bordercolor="#000000"
     borderopacity="0.25"
     inkscape:showpageshadow="2"
     inkscape:pageopacity="0.0"
     inkscape:pagecheckerboard="true"
     inkscape:deskcolor="#d1d1d1"
     inkscape:document-units="px"
     inkscape:zoom="5.921453"
     inkscape:cx="46.356866"
     inkscape:cy="33.015546"
     inkscape:window-width="1920"
     inkscape:window-height="1111"
     inkscape:window-x="-9"
     inkscape:window-y="-9"
     inkscape:window-maximized="1"
     inkscape:current-layer="layer1" />
  <defs
     id="defs1" />
  <g
     inkscape:label="Layer 1"
     inkscape:groupmode="layer"
     id="layer1">
    <rect
       style="fill:#000000;fill-opacity:1;stroke:none;stroke-width:0.529167;stroke-linecap:round;stroke-linejoin:round;stroke-dasharray:none;stroke-opacity:1"
       id="rect3"
       x="-6.9388939e-18"
       y="0"
       width="12.7"
       height="12.7" />
    <g
       id="g2"
       transform="matrix(1.232392,0,0,1.232392,-1.4777867,-3.2298719)"
       style="stroke:#000000;stroke-opacity:1;fill:#d600dc;fill-opacity:1">
      <path
         id="path2-2-1-2"
         style="fill:#d600dc;stroke:#000000;stroke-width:0.529167;stroke-linecap:round;stroke-linejoin:round;stroke-opacity:1;fill-opacity:1"
         d="m 5.8768155,9.3694058 c 1.494392,0 2.7058351,-1.2154341 2.7058351,-2.7147478 V 4.1780453 c 0,0 -1.9735541,0.4232896 -2.8617212,1.5002552 -0.979959,1.1882709 -1.012281,1.9201825 -1.05214,3.4057872 0.333525,0.1750655 0.757943,0.2853181 1.2080261,0.2853181 z"
         sodipodi:nodetypes="sccscs" />
      <path
         id="path2-2-1"
         style="fill:#d600dc;stroke:#000000;stroke-width:0.529167;stroke-linecap:round;stroke-linejoin:round;stroke-opacity:1;fill-opacity:1"
         d="m 6.8265882,9.3694058 c -1.494392,0 -2.7058347,-1.2154341 -2.7058347,-2.7147478 V 4.1780453 c 0,0 1.9735537,0.4232896 2.8617207,1.5002552 0.979959,1.1882709 1.012281,1.9201825 1.05214,3.4057872 -0.333525,0.1750655 -0.757943,0.2853181 -1.208026,0.2853181 z"
         sodipodi:nodetypes="sccscs" />
    </g>
    <g
       id="g3"
       transform="matrix(1.232392,0,0,1.232392,-1.4756893,-2.6095991)"
       style="stroke:#000000;stroke-opacity:1;fill:#d600dc;fill-opacity:1">
      <path
         id="path2"
         style="fill:#d600dc;stroke:#000000;stroke-width:0.529167;stroke-linecap:round;stroke-linejoin:round;stroke-opacity:1;fill-opacity:1"
         d="m 3.3028674,7.8183012 c -2e-7,1.6828849 1.3642476,3.0471328 3.0471325,3.0471328 1.6828849,0 3.0471327,-1.3642479 3.0471325,-3.0471328 V 5.03846 c 0,0 -2.2224866,0.4751159 -3.2226801,1.6839416 -1.1035645,1.333759 -1.1399639,2.1552836 -1.1399639,3.8452174"
         sodipodi:nodetypes="csccsc" />
      <path
         id="path2-2"
         style="fill:#d600dc;stroke:#000000;stroke-width:0.529167;stroke-linecap:round;stroke-linejoin:round;stroke-opacity:1;fill-opacity:1"
         d="m 9.3971329,7.8183016 c 0,1.6828849 -1.364248,3.0471324 -3.047133,3.0471324 -1.6828848,0 -3.0471318,-1.3642475 -3.0471318,-3.0471324 V 5.0384604 c 0,0 2.2224858,0.4751159 3.2226798,1.6839416 1.103565,1.333759 1.139964,2.1552836 1.139964,3.845217"
         sodipodi:nodetypes="csccsc" />
    </g>
  </g>
</svg>
